<mxfile host="app.diagrams.net" modified="2024-07-19T09:30:41.634Z" agent="Mozilla/5.0 (Windows NT 10.0; Win64; x64) AppleWebKit/537.36 (KHTML, like Gecko) Chrome/126.0.0.0 Safari/537.36 Edg/126.0.0.0" etag="NqVNBZq4QXFr-OWAiOxJ" version="24.7.1" type="device">
  <diagram name="Page-1" id="OVC9udUQII2XadDCwPEm">
    <mxGraphModel dx="418" dy="868" grid="1" gridSize="10" guides="1" tooltips="1" connect="1" arrows="1" fold="1" page="1" pageScale="1" pageWidth="827" pageHeight="1169" math="0" shadow="0">
      <root>
        <mxCell id="0" />
        <mxCell id="1" parent="0" />
        <mxCell id="Qgs5rMO8MR5iMrVWRRnl-9" style="edgeStyle=orthogonalEdgeStyle;rounded=0;orthogonalLoop=1;jettySize=auto;html=1;entryX=0.5;entryY=0;entryDx=0;entryDy=0;" edge="1" parent="1" source="Qgs5rMO8MR5iMrVWRRnl-1" target="Qgs5rMO8MR5iMrVWRRnl-2">
          <mxGeometry relative="1" as="geometry" />
        </mxCell>
        <mxCell id="Qgs5rMO8MR5iMrVWRRnl-1" value="START" style="ellipse;whiteSpace=wrap;html=1;" vertex="1" parent="1">
          <mxGeometry x="354" y="60" width="120" height="80" as="geometry" />
        </mxCell>
        <mxCell id="Qgs5rMO8MR5iMrVWRRnl-10" style="edgeStyle=orthogonalEdgeStyle;rounded=0;orthogonalLoop=1;jettySize=auto;html=1;entryX=0.5;entryY=0;entryDx=0;entryDy=0;" edge="1" parent="1" source="Qgs5rMO8MR5iMrVWRRnl-2" target="Qgs5rMO8MR5iMrVWRRnl-3">
          <mxGeometry relative="1" as="geometry" />
        </mxCell>
        <mxCell id="Qgs5rMO8MR5iMrVWRRnl-2" value="INPUT M1, M2, M3 ,M4" style="shape=parallelogram;perimeter=parallelogramPerimeter;whiteSpace=wrap;html=1;fixedSize=1;" vertex="1" parent="1">
          <mxGeometry x="230" y="190" width="360" height="60" as="geometry" />
        </mxCell>
        <mxCell id="Qgs5rMO8MR5iMrVWRRnl-11" style="edgeStyle=orthogonalEdgeStyle;rounded=0;orthogonalLoop=1;jettySize=auto;html=1;entryX=0.5;entryY=0;entryDx=0;entryDy=0;" edge="1" parent="1" source="Qgs5rMO8MR5iMrVWRRnl-3" target="Qgs5rMO8MR5iMrVWRRnl-4">
          <mxGeometry relative="1" as="geometry" />
        </mxCell>
        <mxCell id="Qgs5rMO8MR5iMrVWRRnl-3" value="AVG_Grade = (M1+M2+M3+M4)/4" style="rounded=0;whiteSpace=wrap;html=1;" vertex="1" parent="1">
          <mxGeometry x="237" y="301" width="356" height="60" as="geometry" />
        </mxCell>
        <mxCell id="Qgs5rMO8MR5iMrVWRRnl-12" style="edgeStyle=orthogonalEdgeStyle;rounded=0;orthogonalLoop=1;jettySize=auto;html=1;" edge="1" parent="1" source="Qgs5rMO8MR5iMrVWRRnl-4" target="Qgs5rMO8MR5iMrVWRRnl-5">
          <mxGeometry relative="1" as="geometry" />
        </mxCell>
        <mxCell id="Qgs5rMO8MR5iMrVWRRnl-4" value="IF&lt;div&gt;AVG_Grade &amp;lt; 60&lt;br&gt;&lt;/div&gt;&lt;div&gt;?&lt;/div&gt;" style="rhombus;whiteSpace=wrap;html=1;" vertex="1" parent="1">
          <mxGeometry x="340" y="400" width="140" height="130" as="geometry" />
        </mxCell>
        <mxCell id="Qgs5rMO8MR5iMrVWRRnl-15" style="edgeStyle=orthogonalEdgeStyle;rounded=0;orthogonalLoop=1;jettySize=auto;html=1;entryX=0.5;entryY=0;entryDx=0;entryDy=0;" edge="1" parent="1" source="Qgs5rMO8MR5iMrVWRRnl-5" target="Qgs5rMO8MR5iMrVWRRnl-7">
          <mxGeometry relative="1" as="geometry" />
        </mxCell>
        <mxCell id="Qgs5rMO8MR5iMrVWRRnl-5" value="DISPLAY &quot;FAIL&quot;" style="shape=parallelogram;perimeter=parallelogramPerimeter;whiteSpace=wrap;html=1;fixedSize=1;" vertex="1" parent="1">
          <mxGeometry x="550" y="435" width="200" height="60" as="geometry" />
        </mxCell>
        <mxCell id="Qgs5rMO8MR5iMrVWRRnl-14" style="edgeStyle=orthogonalEdgeStyle;rounded=0;orthogonalLoop=1;jettySize=auto;html=1;entryX=0;entryY=0.5;entryDx=0;entryDy=0;" edge="1" parent="1" source="Qgs5rMO8MR5iMrVWRRnl-6" target="Qgs5rMO8MR5iMrVWRRnl-7">
          <mxGeometry relative="1" as="geometry" />
        </mxCell>
        <mxCell id="Qgs5rMO8MR5iMrVWRRnl-6" value="DISPLAY &quot;PASS&quot;" style="shape=parallelogram;perimeter=parallelogramPerimeter;whiteSpace=wrap;html=1;fixedSize=1;" vertex="1" parent="1">
          <mxGeometry x="320" y="585" width="220" height="60" as="geometry" />
        </mxCell>
        <mxCell id="Qgs5rMO8MR5iMrVWRRnl-16" style="edgeStyle=orthogonalEdgeStyle;rounded=0;orthogonalLoop=1;jettySize=auto;html=1;entryX=0.5;entryY=0;entryDx=0;entryDy=0;" edge="1" parent="1" source="Qgs5rMO8MR5iMrVWRRnl-7" target="Qgs5rMO8MR5iMrVWRRnl-8">
          <mxGeometry relative="1" as="geometry" />
        </mxCell>
        <mxCell id="Qgs5rMO8MR5iMrVWRRnl-7" value="" style="ellipse;whiteSpace=wrap;html=1;aspect=fixed;" vertex="1" parent="1">
          <mxGeometry x="630" y="640" width="30" height="30" as="geometry" />
        </mxCell>
        <mxCell id="Qgs5rMO8MR5iMrVWRRnl-8" value="END" style="ellipse;whiteSpace=wrap;html=1;" vertex="1" parent="1">
          <mxGeometry x="585" y="770" width="120" height="80" as="geometry" />
        </mxCell>
        <mxCell id="Qgs5rMO8MR5iMrVWRRnl-13" style="edgeStyle=orthogonalEdgeStyle;rounded=0;orthogonalLoop=1;jettySize=auto;html=1;entryX=0.427;entryY=0.033;entryDx=0;entryDy=0;entryPerimeter=0;" edge="1" parent="1" source="Qgs5rMO8MR5iMrVWRRnl-4" target="Qgs5rMO8MR5iMrVWRRnl-6">
          <mxGeometry relative="1" as="geometry" />
        </mxCell>
        <mxCell id="Qgs5rMO8MR5iMrVWRRnl-17" value="YES" style="text;html=1;align=center;verticalAlign=middle;resizable=0;points=[];autosize=1;strokeColor=none;fillColor=none;" vertex="1" parent="1">
          <mxGeometry x="485" y="438" width="50" height="30" as="geometry" />
        </mxCell>
        <mxCell id="Qgs5rMO8MR5iMrVWRRnl-18" value="NO" style="text;html=1;align=center;verticalAlign=middle;resizable=0;points=[];autosize=1;strokeColor=none;fillColor=none;" vertex="1" parent="1">
          <mxGeometry x="410" y="538" width="40" height="30" as="geometry" />
        </mxCell>
      </root>
    </mxGraphModel>
  </diagram>
</mxfile>
